<svg width="50" height="50" viewBox="0 0 50 50" fill="none" xmlns="http://www.w3.org/2000/svg">
<path d="M33.3659 35.1211C33.1974 35.1212 33.0327 35.0702 32.8937 34.9748C32.7548 34.8794 32.648 34.7441 32.5875 34.5867C32.527 34.4294 32.5157 34.2574 32.555 34.0935C32.5943 33.9296 32.6823 33.7814 32.8076 33.6686C34.2019 32.4134 35.2729 30.8404 35.9298 29.0831C36.5867 27.3258 36.8102 25.436 36.5812 23.574C36.3522 21.7119 35.6776 19.9326 34.6144 18.3868C33.5513 16.841 32.1311 15.5744 30.4743 14.6944C30.2791 14.5905 30.1332 14.4134 30.0687 14.2019C30.0041 13.9905 30.0262 13.7621 30.1301 13.5669C30.234 13.3718 30.4111 13.2259 30.6226 13.1613C30.834 13.0968 31.0624 13.1189 31.2576 13.2227C33.151 14.2285 34.774 15.676 35.9889 17.4426C37.2038 19.2091 37.9748 21.2426 38.2365 23.3705C38.4982 25.4985 38.2429 27.6582 37.4922 29.6665C36.7415 31.6747 35.5176 33.4724 33.9243 34.9069C33.7711 35.0449 33.5721 35.1212 33.3659 35.1211Z" fill="white"/>
<path d="M16.6344 35.1211C16.4282 35.1212 16.2292 35.0449 16.076 34.9069C14.4827 33.4724 13.2588 31.6747 12.5081 29.6665C11.7574 27.6582 11.5021 25.4985 11.7638 23.3705C12.0255 21.2426 12.7964 19.2091 14.0113 17.4426C15.2262 15.676 16.8492 14.2285 18.7427 13.2227C18.8393 13.1713 18.9451 13.1394 19.0541 13.1289C19.1631 13.1183 19.273 13.1294 19.3777 13.1613C19.4824 13.1933 19.5798 13.2455 19.6643 13.3151C19.7488 13.3847 19.8188 13.4703 19.8702 13.5669C19.9216 13.6635 19.9535 13.7694 19.9641 13.8783C19.9746 13.9873 19.9636 14.0972 19.9316 14.2019C19.8997 14.3066 19.8474 14.404 19.7778 14.4885C19.7082 14.573 19.6227 14.643 19.526 14.6944C17.8692 15.5744 16.4489 16.841 15.3858 18.3868C14.3227 19.9326 13.6481 21.7119 13.4191 23.574C13.1901 25.436 13.4135 27.3258 14.0705 29.0831C14.7274 30.8404 15.7984 32.4134 17.1927 33.6686C17.3179 33.7814 17.406 33.9296 17.4453 34.0935C17.4846 34.2574 17.4733 34.4294 17.4128 34.5867C17.3523 34.7441 17.2455 34.8794 17.1065 34.9748C16.9676 35.0702 16.8029 35.1212 16.6344 35.1211Z" fill="white"/>
<path d="M49.1667 19.1667H43.2608C42.937 18.1502 42.5275 17.163 42.0367 16.2158L46.2142 12.0392C46.3704 11.8829 46.4582 11.671 46.4582 11.45C46.4582 11.229 46.3704 11.0171 46.2142 10.8608L39.1392 3.78583C38.9829 3.62961 38.771 3.54184 38.55 3.54184C38.329 3.54184 38.1171 3.62961 37.9608 3.78583L33.7833 7.96333C32.8367 7.47202 31.8497 7.06247 30.8333 6.73917V0.833333C30.8333 0.61232 30.7455 0.400358 30.5893 0.244078C30.433 0.0877973 30.221 0 30 0H20C19.779 0 19.567 0.0877973 19.4107 0.244078C19.2545 0.400358 19.1667 0.61232 19.1667 0.833333V6.73917C18.1503 7.06247 17.1633 7.47202 16.2167 7.96333L12.0392 3.78583C11.8829 3.62961 11.671 3.54184 11.45 3.54184C11.229 3.54184 11.0171 3.62961 10.8608 3.78583L3.78583 10.8608C3.62961 11.0171 3.54184 11.229 3.54184 11.45C3.54184 11.671 3.62961 11.8829 3.78583 12.0392L7.96333 16.2158C7.47251 17.163 7.06298 18.1502 6.73917 19.1667H0.833333C0.61232 19.1667 0.400358 19.2545 0.244078 19.4107C0.0877973 19.567 0 19.779 0 20V30C0 30.221 0.0877973 30.433 0.244078 30.5893C0.400358 30.7455 0.61232 30.8333 0.833333 30.8333H6.73917C7.06283 31.8496 7.47237 32.8365 7.96333 33.7833L3.78583 37.9608C3.62961 38.1171 3.54184 38.329 3.54184 38.55C3.54184 38.771 3.62961 38.9829 3.78583 39.1392L10.8608 46.2142C11.0171 46.3704 11.229 46.4582 11.45 46.4582C11.671 46.4582 11.8829 46.3704 12.0392 46.2142L16.2167 42.0367C17.3513 42.6253 18.543 43.0966 19.7733 43.4433C19.8476 43.4601 19.924 43.4657 20 43.46V45.8333C20.0013 46.938 20.4407 47.997 21.2218 48.7781C22.003 49.5593 23.062 49.9987 24.1667 50H25.8333C26.938 49.9987 27.997 49.5593 28.7781 48.7781C29.5593 47.997 29.9987 46.938 30 45.8333V43.46C30.076 43.4657 30.1523 43.46 30.2267 43.4433C31.457 43.0966 32.6487 42.6253 33.7833 42.0367L37.9608 46.2142C38.1171 46.3704 38.329 46.4582 38.55 46.4582C38.771 46.4582 38.9829 46.3704 39.1392 46.2142L46.2142 39.1392C46.3704 38.9829 46.4582 38.771 46.4582 38.55C46.4582 38.329 46.3704 38.1171 46.2142 37.9608L42.0367 33.7833C42.5276 32.8365 42.9372 31.8496 43.2608 30.8333H49.1667C49.3877 30.8333 49.5996 30.7455 49.7559 30.5893C49.9122 30.433 50 30.221 50 30V20C50 19.779 49.9122 19.567 49.7559 19.4107C49.5996 19.2545 49.3877 19.1667 49.1667 19.1667ZM22.6833 16.6667L24.0167 10H25.985L27.3183 16.6667H22.6833ZM24.1667 18.3333H25.8333V30H24.1667V18.3333ZM29.1667 31.6667C29.3877 31.6667 29.5996 31.7545 29.7559 31.9107C29.9122 32.067 30 32.279 30 32.5C30 32.721 29.9122 32.933 29.7559 33.0893C29.5996 33.2455 29.3877 33.3333 29.1667 33.3333H20.8333C20.6123 33.3333 20.4004 33.2455 20.2441 33.0893C20.0878 32.933 20 32.721 20 32.5C20 32.279 20.0878 32.067 20.2441 31.9107C20.4004 31.7545 20.6123 31.6667 20.8333 31.6667H29.1667ZM28.3333 45.8333C28.3333 46.4964 28.0699 47.1323 27.6011 47.6011C27.1323 48.0699 26.4964 48.3333 25.8333 48.3333H24.1667C23.5036 48.3333 22.8677 48.0699 22.3989 47.6011C21.9301 47.1323 21.6667 46.4964 21.6667 45.8333V35H28.3333V45.8333ZM48.3333 29.1667H42.6417C42.4602 29.1667 42.2837 29.226 42.139 29.3355C41.9944 29.445 41.8894 29.5987 41.84 29.7733C41.4716 31.0807 40.9487 32.3396 40.2825 33.5233C40.1928 33.682 40.1575 33.8658 40.1822 34.0464C40.2069 34.227 40.2901 34.3945 40.4192 34.5233L44.4467 38.5508L38.55 44.4467L34.5225 40.4167C34.3937 40.2876 34.2262 40.2044 34.0455 40.1797C33.8649 40.155 33.6812 40.1903 33.5225 40.28C32.4079 40.9067 31.2263 41.4059 30 41.7683V34.8467C30.5556 34.651 31.024 34.265 31.3222 33.7571C31.6204 33.2491 31.7293 32.652 31.6295 32.0715C31.5297 31.491 31.2276 30.9646 30.7769 30.5854C30.3261 30.2063 29.7557 29.9989 29.1667 30H27.5V18.3333H28.3333C28.4569 18.3334 28.579 18.3059 28.6906 18.2529C28.8023 18.2 28.9008 18.1228 28.9789 18.0271C29.0571 17.9314 29.113 17.8195 29.1426 17.6995C29.1722 17.5795 29.1747 17.4544 29.15 17.3333L27.4833 9C27.4449 8.81177 27.3426 8.6426 27.1938 8.52112C27.045 8.39963 26.8588 8.33329 26.6667 8.33333H23.3333C23.1412 8.33329 22.955 8.39963 22.8062 8.52112C22.6574 8.6426 22.5551 8.81177 22.5167 9L20.85 17.3333C20.8253 17.4544 20.8278 17.5795 20.8574 17.6995C20.887 17.8195 20.9429 17.9314 21.0211 18.0271C21.0992 18.1228 21.1977 18.2 21.3094 18.2529C21.421 18.3059 21.5431 18.3334 21.6667 18.3333H22.5V30H20.8333C20.2443 29.9989 19.6739 30.2063 19.2231 30.5854C18.7724 30.9646 18.4703 31.491 18.3705 32.0715C18.2707 32.652 18.3796 33.2491 18.6778 33.7571C18.976 34.265 19.4444 34.651 20 34.8467V41.7683C18.7735 41.4068 17.5917 40.9084 16.4767 40.2825C16.318 40.1928 16.1342 40.1575 15.9536 40.1822C15.773 40.2069 15.6055 40.2901 15.4767 40.4192L11.45 44.4467L5.55333 38.55L9.58333 34.5225C9.71236 34.3937 9.79559 34.2262 9.82028 34.0455C9.84496 33.8649 9.80974 33.6812 9.72 33.5225C9.05377 32.3388 8.53092 31.0799 8.1625 29.7725C8.11288 29.5976 8.00744 29.4438 7.86225 29.3344C7.71707 29.225 7.54011 29.1661 7.35833 29.1667H1.66667V20.8333H7.35833C7.53979 20.8333 7.71626 20.774 7.86095 20.6645C8.00565 20.555 8.11064 20.4013 8.16 20.2267C8.52823 18.9192 9.05109 17.6603 9.7175 16.4767C9.80724 16.318 9.84246 16.1342 9.81778 15.9536C9.79309 15.773 9.70986 15.6055 9.58083 15.4767L5.55333 11.45L11.45 5.55333L15.4775 9.58333C15.6063 9.71236 15.7738 9.79559 15.9545 9.82028C16.1351 9.84496 16.3188 9.80974 16.4775 9.72C17.6611 9.05359 18.92 8.53073 20.2275 8.1625C20.4024 8.11288 20.5562 8.00744 20.6656 7.86225C20.775 7.71707 20.8339 7.54011 20.8333 7.35833V1.66667H29.1667V7.35833C29.1667 7.53979 29.226 7.71626 29.3355 7.86095C29.445 8.00565 29.5987 8.11064 29.7733 8.16C31.0807 8.52842 32.3396 9.05127 33.5233 9.7175C33.682 9.80724 33.8658 9.84246 34.0464 9.81778C34.227 9.79309 34.3945 9.70986 34.5233 9.58083L38.55 5.55333L44.4467 11.45L40.4167 15.4775C40.2876 15.6063 40.2044 15.7738 40.1797 15.9545C40.155 16.1351 40.1903 16.3188 40.28 16.4775C40.9464 17.6611 41.4693 18.92 41.8375 20.2275C41.8871 20.4024 41.9926 20.5562 42.1377 20.6656C42.2829 20.775 42.4599 20.8339 42.6417 20.8333H48.3333V29.1667Z" fill="white"/>
<path d="M25 46.6665C25.221 46.6665 25.4329 46.5787 25.5892 46.4224C25.7455 46.2661 25.8333 46.0542 25.8333 45.8332V37.4998C25.8333 37.2788 25.7455 37.0669 25.5892 36.9106C25.4329 36.7543 25.221 36.6665 25 36.6665C24.7789 36.6665 24.567 36.7543 24.4107 36.9106C24.2544 37.0669 24.1666 37.2788 24.1666 37.4998V45.8332C24.1666 46.0542 24.2544 46.2661 24.4107 46.4224C24.567 46.5787 24.7789 46.6665 25 46.6665Z" fill="white"/>
<path d="M24.1666 3.3335H25.8333V5.00016H24.1666V3.3335Z" fill="white"/>
<path d="M9.08765 10.2686L10.2662 9.09004L11.4447 10.2686L10.2662 11.4471L9.08765 10.2686Z" fill="white"/>
<path d="M3.33337 24.1665H5.00004V25.8332H3.33337V24.1665Z" fill="white"/>
<path d="M9.08435 39.729L10.2629 38.5505L11.4414 39.729L10.2629 40.9075L9.08435 39.729Z" fill="white"/>
<path d="M38.5447 39.7314L39.7232 38.5529L40.9017 39.7314L39.7232 40.91L38.5447 39.7314Z" fill="white"/>
<path d="M45 24.1665H46.6667V25.8332H45V24.1665Z" fill="white"/>
<path d="M38.5663 10.2847L39.7465 9.10782L40.9233 10.288L39.7431 11.4648L38.5663 10.2847Z" fill="white"/>
</svg>
