<?xml version="1.0" encoding="utf-8"?><svg viewBox="0 0 85 87" xmlns="http://www.w3.org/2000/svg" xmlns:xlink="http://www.w3.org/1999/xlink"><style>:root>svg{display:none}:root>svg:target{display:block}</style><svg viewBox="0 0 24 24" class="aui-icon" id="arrow" xmlns="http://www.w3.org/2000/svg"><path d="M8.6 16.6l4.6-4.6-4.6-4.6L10 6l6 6-6 6-1.4-1.4z" fill="#757575"/></svg><svg fill="none" viewBox="0 0 35 23" id="burger" xmlns="http://www.w3.org/2000/svg"><rect width="35" height="3" rx="1" fill="#fff"/><rect y="10" width="35" height="3" rx="1" fill="#fff"/><rect y="20" width="35" height="3" rx="1" fill="#fff"/></svg><svg fill="none" viewBox="0 0 78 87" id="deliver" xmlns="http://www.w3.org/2000/svg"><path d="M40.326 77.938h23.147a.907.907 0 110 1.812H40.326a.907.907 0 110-1.813zM78 5.438v76.125c0 3-2.442 5.437-5.447 5.437H31.247c-3.005 0-5.447-2.438-5.447-5.437V65.64h1.816v15.923a3.633 3.633 0 003.631 3.625h41.306a3.633 3.633 0 003.632-3.625V5.437a3.633 3.633 0 00-3.632-3.625h-8.297l-2.152 4.65a3.626 3.626 0 01-3.295 2.11H44.992a3.649 3.649 0 01-3.305-2.11l-2.142-4.65h-8.298a3.633 3.633 0 00-3.63 3.626V21.36H25.8V5.437c0-3 2.442-5.437 5.447-5.437h41.306C75.558 0 78 2.438 78 5.437zM57.066 4.285c0-.498-.4-.906-.908-.906h-8.516a.904.904 0 00-.907.906c0 .499.399.907.907.907h8.516a.904.904 0 00.908-.907zm1.325 59.541H4.54C2.043 63.827 0 61.788 0 59.296V41.769h62.93v17.527a4.543 4.543 0 01-4.539 4.531zm-21.343-6.343a.904.904 0 00-.908-.907h-3.286c-.5 0-.908.399-.908.907a.91.91 0 00.908.906h3.286a.91.91 0 00.908-.907zm20.435 0a.904.904 0 00-.908-.907H39.69c-.5 0-.908.399-.908.907a.91.91 0 00.908.906h16.885a.91.91 0 00.908-.907zm0-5.973a.91.91 0 00-.908-.906H39.69a.91.91 0 00-.908.906.91.91 0 00.908.907h16.885a.91.91 0 00.908-.907zm5.447-23.807a4.543 4.543 0 00-4.539-4.531H4.54C2.043 23.173 0 25.212 0 27.704v3.188h62.93v-3.188zm0 5.002H0v7.25h62.93v-7.25z" fill="#009CD4"/></svg><svg fill="none" viewBox="0 0 38 29" id="email" xmlns="http://www.w3.org/2000/svg"><path d="M35.196 1.687l.071-.065-.094-.021a1.755 1.755 0 01-.094-.024l-.066-.018a.725.725 0 00-.18-.026H3.167a.725.725 0 00-.18.026l-.066.018c-.032.009-.062.017-.094.024l-.095.02.071.066c2.742 2.508 11.833 10.825 15.014 13.691l.033-.037-.033.037c.254.229.666.505 1.183.505s.93-.276 1.182-.504l-.033-.037.033.037c3.182-2.867 12.273-11.183 15.014-13.692zM1.706 2.692l-.06-.054-.022.077-.012.04c-.038.127-.079.263-.079.412v22.166c0 .13.035.25.068.363l.018.063.022.08.06-.057c2.116-2.017 8.46-8.031 12.558-11.552l.043-.037-.042-.038A6456.562 6456.562 0 011.706 2.692zm1.07 24.116l-.067.064.09.021.085.023.006.001.083.023c.06.015.125.027.194.027h31.666c.07 0 .134-.012.194-.027l.083-.023.006-.001.086-.023.09-.021-.067-.064c-2.186-2.084-8.571-8.134-12.6-11.58l-.034-.029-.032.03-1.384 1.251h0c-.643.581-1.396.887-2.175.887-.78 0-1.532-.306-2.176-.887h0l-1.383-1.251-.032-.03-.034.029c-4.028 3.446-10.414 9.497-12.6 11.58zm33.523-1.026l.06.058.022-.08.019-.064c.032-.113.067-.233.067-.363V3.167c0-.149-.041-.285-.08-.413l-.011-.04-.023-.076-.059.054A6403.24 6403.24 0 0123.74 14.155l-.042.039.043.036c4.099 3.52 10.442 9.534 12.558 11.552zM3.167.05h31.666a3.12 3.12 0 013.117 3.117v22.166a3.12 3.12 0 01-3.117 3.117H3.167A3.12 3.12 0 01.05 25.333V3.167A3.12 3.12 0 013.167.05z" fill="#009CD4" stroke="#fff" stroke-width=".1"/></svg><svg version="1.1" id="footer" x="0" y="0" viewBox="0 0 85 10.7" xml:space="preserve" xmlns="http://www.w3.org/2000/svg"><style>.est0{fill:#fff}</style><path class="est0" d="M83.7 2.7c-.2 0-.5-.1-.7-.2-.2-.1-.4-.3-.5-.5s-.2-.4-.2-.7.1-.5.2-.7.3-.4.5-.5c.2 0 .5-.1.7-.1s.5.1.7.2.4.3.5.5c.1.2.1.4.1.6 0 .3 0 .5-.1.7s-.3.4-.5.5c-.2.1-.4.2-.7.2m-1-1.4c0 .2.1.4.1.6.1.2.2.3.4.4.2.1.3.1.5.1s.4 0 .5-.1c.2-.1.3-.2.4-.4.1-.2.1-.4.1-.6s0-.4-.1-.6-.2-.3-.4-.4c-.2-.1-.3-.1-.5-.1s-.4 0-.5.1c-.2.1-.3.2-.4.4s-.1.4-.1.6m.7.2v.7h-.2V.6h.6c.2 0 .3 0 .4.1s.1.2.1.3 0 .2-.1.3c-.1.1-.2.1-.3.1l.4.7H84l-.4-.7h-.2v.1zm0-.7v.5h.6c.1 0 .1-.1.1-.2s0-.2-.1-.2h-.2l-.4-.1zM60.6.6c-.2.2-.4.5-.5.9l-2.5 7.7c-.1.4-.2.7-.1.9.1.2.4.2 1 .2h.4l-.1.3H52l.1-.3c.6 0 1 0 1.2-.2.2-.1.4-.5.6-.9l1.2-3.6h-3.8l-1.2 3.6c-.2.5-.2.8-.1 1 .1.1.5.2 1.2.1l-.1.3H44.5l.1-.3h.6c.3 0 .5-.1.7-.1.2-.1.4-.4.5-1L49 1.5c.1-.4.2-.7.1-.9-.1-.1-.4-.2-.9-.2h-.4L48 0h6.6l-.1.3h-.3c-.5 0-.9.1-1 .2-.2.1-.3.5-.5.9l-1.1 3.4h3.8l1.1-3.4c.1-.5.2-.8 0-.9-.1-.1-.5-.2-1.1-.2l.1-.3H62.2l-.2.4h-.4c-.5 0-.8.1-1 .2M63.8 8.2h-1.4l-.9 1.2c-.1.2-.2.4-.3.4-.1.2 0 .4.1.4.1.1.4.1.8.1l-.1.2h-2.7l.1-.2c.3 0 .6-.1.8-.3.2-.1.4-.3.7-.7.1-.1.1-.2.2-.2l2.8-3.8L66 2.5h.8L68 9.6c0 .3.1.4.2.5 0 .1.2.1.4.1l-.1.2H64l.1-.2h.7c.3-.1.5-.2.6-.4.1-.1.1-.3 0-.5L65 8.2h-1.2zm0-2l-1.1 1.5h2.2l-.4-2.4-.7.9zM8.4 1.1l-2.6 8c-.2.3-.2.5-.2.6.1.1.3.2.6.2.8 0 1.5-.2 2.1-.7.1-.1.3-.2.4-.3.7-.7 1.3-1.8 1.8-3.3 1.1-3.4.6-5.1-1.4-5.1h-.6l-.1.6zM0 10.7l.1-.3c.7 0 1.2-.1 1.5-.3.2-.2.4-.5.6-1l2.5-7.6c.2-.5.2-.9 0-1C4.5.4 4.1.3 3.4.4l.1-.4h6.9c1.6 0 2.8.5 3.7 1.4.9 1 1.1 2.3.6 4-.5 1.5-1.4 2.7-2.8 3.7-1 .8-2.2 1.3-3.5 1.5-.5.1-1.1.1-1.7.1H0zM20.1 2.8c.4-.1.8-.1 1.3-.1 1.6 0 2.6.4 3.2 1.2.6.7.7 1.7.3 2.8-.3 1-.9 1.9-1.9 2.6-.8.7-1.8 1.2-3 1.3-.4.1-.9.1-1.3.1-1.7 0-2.8-.5-3.4-1.4-.4-.7-.5-1.6-.1-2.6.3-1.1 1-2 2-2.7.9-.7 1.8-1.1 2.9-1.2m0 7c.7-.5 1.3-1.6 1.8-3.1.7-2.4.5-3.5-.7-3.5-.4 0-.7.1-1.1.4-.2.1-.4.3-.5.5-.5.6-.9 1.5-1.3 2.6-.3 1-.4 1.8-.4 2.4.1.7.4 1.2 1.1 1.2.3-.1.7-.3 1.1-.5M30.5 2.8c.4-.1.8-.1 1.3-.1 1.6 0 2.6.4 3.2 1.2.6.7.7 1.7.3 2.8-.3 1-.9 1.9-1.8 2.6-.8.7-1.8 1.2-3 1.3-.4.1-.9.1-1.3.1-1.7 0-2.8-.5-3.4-1.4-.4-.7-.5-1.6-.1-2.6.3-1.1 1-2 2-2.7.9-.7 1.8-1.1 2.8-1.2m0 7c.7-.5 1.3-1.6 1.8-3.1.7-2.4.5-3.5-.7-3.5-.4 0-.7.1-1.1.4-.2.1-.4.3-.5.5-.5.6-.9 1.5-1.3 2.6-.3 1-.4 1.8-.4 2.4.1.7.4 1.2 1.1 1.2.4-.1.8-.3 1.1-.5M40.8 3.2h-.3l-1.1 3.4h.6c.3 0 .6-.1.9-.2.6-.2 1-.8 1.3-1.6.2-.5.2-.9.1-1.2-.2-.3-.5-.5-1-.5l-.5.1zm3.9.2c.2.3.2.8.1 1.4 0 .1-.1.1-.1.2-.4.9-1.1 1.4-2.3 1.8l.9 3c.1.4.4.6.8.6l-.1.3h-3.3L39.6 7h-.3l-.8 2.4c-.1.3-.1.6-.1.7.1.2.5.3 1 .2l-.1.3h-5l.1-.3h.3c.3 0 .5-.1.7-.2.2-.1.3-.3.4-.6l1.9-5.9c.1-.3.1-.6 0-.7-.1-.1-.5-.2-.9-.2l.1-.2h5.4c1.2.2 2 .4 2.4.9M78.7 2.7l-.1.3c.8 0 1.2.2 1 .8l-1.3 4-3-5h-3.6l-.1.3c.3 0 .4 0 .6.1.1 0 .2.1.3.3l.2.3-1.9 5.9c-.2.6-.7.9-1.5.9l-.1.2h3.1l.1-.2c-.5 0-.8-.1-.9-.2-.1-.1-.1-.4 0-.8L73 4.3l3.9 6.4H78l2.2-6.9c.1-.3.2-.5.5-.6.2-.1.5-.2.9-.2l.1-.3h-3z"/></svg><svg fill="none" viewBox="0 0 33 44" id="geo" xmlns="http://www.w3.org/2000/svg"><path d="M17 44a1.01 1.01 0 01-.958-.711 1.009 1.009 0 01.322-1.065c.339-.276.828-.299 1.191-.058.336.223.507.641.425 1.036-.096.458-.511.798-.98.798z" fill="#009CD4"/><path d="M32.915 42.769l-5.523-11.454a.863.863 0 00-.778-.488H22.74l1.738-2.187c1.052-1.322 2.14-2.69 3.114-4.09 1.72-2.472 3.692-5.828 3.692-9.88C31.284 6.58 24.652 0 16.5 0 8.348 0 1.716 6.58 1.716 14.67c0 4.052 1.973 7.408 3.692 9.88.973 1.4 2.061 2.767 3.114 4.09l1.737 2.187H6.386a.864.864 0 00-.778.488L.085 42.769a.856.856 0 00.048.83c.158.25.434.401.73.401h11.734a.861.861 0 00.864-.86.861.861 0 00-.864-.859H2.235l4.694-9.735h4.694l3.176 4.008h-2.242a.861.861 0 00-.863.86c0 .474.387.859.863.859h7.886a.861.861 0 00.863-.86.861.861 0 00-.863-.859H18.2l3.176-4.008h4.694l4.694 9.735H20.403a.861.861 0 00-.863.86c0 .474.386.859.863.859h11.734a.865.865 0 00.73-.402.856.856 0 00.048-.83zM6.827 23.572c-1.576-2.267-3.385-5.326-3.385-8.903C3.442 7.53 9.3 1.72 16.5 1.72s13.058 5.81 13.058 12.95c0 3.577-1.81 6.636-3.385 8.902-.943 1.356-2.013 2.701-3.048 4.002-2.356 2.96-5.314 6.697-6.625 8.353-1.31-1.656-4.27-5.392-6.625-8.353-1.035-1.301-2.106-2.647-3.048-4.002z" fill="#009CD4"/><path d="M17 24c-4.963 0-9-4.037-9-9s4.037-9 9-9 9 4.037 9 9-4.037 9-9 9zm0-16.247c-3.999 0-7.252 3.251-7.252 7.247S13 22.247 17 22.247c4 0 7.252-3.25 7.252-7.247 0-3.996-3.253-7.247-7.252-7.247z" fill="#009CD4"/></svg><svg fill="none" viewBox="0 0 65 54" id="house" xmlns="http://www.w3.org/2000/svg"><path d="M39.462 1.038l-11.943 7.27-4.673-3.116L1.04 19.73v33.231h8.307V36.346H7.27V33.23h31.154v3.116h-2.077V52.96H47.77v-6.23h3.116V40.5h6.23v6.23h3.116v6.231h3.115V15.577L39.462 1.038zm-8.308 27H14.539v-5.192h16.615v5.192z" fill="#009CD4"/><path d="M63.886 14.69L40.001.152a1.036 1.036 0 00-1.08 0L27.546 7.077l-4.123-2.75a1.04 1.04 0 00-1.152 0L.462 18.868A1.043 1.043 0 000 19.73v33.23A1.038 1.038 0 001.038 54h62.308a1.038 1.038 0 001.039-1.038V15.577a1.039 1.039 0 00-.499-.887zM35.308 51.923H10.385v-2.077h24.923v2.077zm0-4.154H10.385v-2.077h24.923v2.077zm0-4.154H10.385v-2.077h24.923v2.077zm0-4.154H10.385v-2.076h24.923v2.077zm-27-4.153v-1.039h29.077v1.039H8.308zm35.307 16.615h-6.23V37.385h1.038a1.039 1.039 0 001.038-1.039v-3.115a1.038 1.038 0 00-1.038-1.039H7.27a1.038 1.038 0 00-1.038 1.039v3.115a1.039 1.039 0 001.038 1.039h1.039v14.538H2.077V20.286L22.847 6.44l20.768 13.846v31.637zm9.346 0h-4.153V47.77h4.154v4.154zm-1.038-6.23v-4.154h4.154v4.153h-4.154zm7.27 6.23h-4.154V47.77h4.153v4.154zm3.115 0h-1.039v-5.192a1.039 1.039 0 00-1.038-1.039h-2.077V40.5a1.039 1.039 0 00-1.039-1.038h-6.23a1.038 1.038 0 00-1.039 1.038v5.192H47.77a1.038 1.038 0 00-1.038 1.039v5.192h-1.039V19.731a1.043 1.043 0 00-.462-.865L29.45 8.348l10.012-6.093L62.308 16.16v35.762z" fill="#112D47"/><path d="M31.154 21.808H14.539a1.038 1.038 0 00-1.039 1.038v5.192a1.038 1.038 0 001.039 1.039h16.615a1.039 1.039 0 001.038-1.039v-5.192a1.039 1.039 0 00-1.038-1.038zm-7.27 2.076h2.078V27h-2.077v-3.116zM21.809 27H19.73v-3.116h2.077V27zm-6.231-3.116h2.077V27h-2.077v-3.116zM30.115 27H28.04v-3.116h2.076V27z" fill="#112D47"/></svg><svg fill="none" viewBox="0 0 41 42" id="phone" xmlns="http://www.w3.org/2000/svg"><path d="M29.05 41.03c.186.01.362.018.547.018 1.978 0 3.628-.716 4.924-2.121l.033-.034c.463-.555.985-1.06 1.54-1.59a28.32 28.32 0 001.128-1.12c1.725-1.8 1.717-4.08-.017-5.814l-4.797-4.797c-.824-.859-1.809-1.313-2.853-1.313-1.035 0-2.028.446-2.878 1.296l-2.836 2.836c-.252-.143-.513-.27-.765-.396a11.82 11.82 0 01-.876-.47c-2.6-1.65-4.956-3.805-7.212-6.573-1.136-1.431-1.885-2.626-2.415-3.855.74-.673 1.43-1.372 2.095-2.053.245-.244.489-.497.741-.75 1.8-1.8 1.8-4.03 0-5.823L13.027 6.09c-.277-.278-.547-.556-.816-.825-.53-.539-1.077-1.102-1.624-1.607-.825-.825-1.801-1.254-2.836-1.254-1.027 0-2.02.429-2.878 1.254L1.885 6.637A6.228 6.228 0 00.034 10.6c-.152 1.918.202 3.955 1.11 6.412 1.406 3.795 3.518 7.322 6.649 11.092 3.812 4.544 8.39 8.137 13.625 10.67 1.994.952 4.662 2.062 7.633 2.256zM9.384 26.784c-2.98-3.585-4.974-6.917-6.295-10.485-.817-2.197-1.12-3.905-.993-5.53.092-1.051.496-1.926 1.254-2.675l2.97-2.971c.455-.438.951-.665 1.44-.665.479 0 .95.227 1.405.673.53.497 1.043 1.019 1.582 1.566.27.277.547.564.833.841l2.382 2.382c.976.976.976 1.935 0 2.912-.253.252-.505.505-.75.757-.74.749-1.43 1.456-2.196 2.138l-.042.042c-.682.681-.58 1.338-.412 1.826.008.025.017.042.025.067.614 1.481 1.481 2.887 2.81 4.57 2.4 2.953 4.924 5.251 7.718 7.027.345.218.707.404 1.06.58.32.16.614.312.875.472.034.016.06.033.093.05.27.135.53.202.8.202.664 0 1.085-.42 1.22-.564l2.987-2.987c.455-.455.943-.69 1.422-.69.59 0 1.07.37 1.38.69l4.814 4.813c1.178 1.178.64 2.239-.025 2.937-.337.362-.69.699-1.06 1.06-.564.54-1.145 1.103-1.675 1.734-.91.977-1.986 1.431-3.392 1.431-.134 0-.277-.008-.412-.017-2.617-.168-5.04-1.187-6.867-2.053-4.982-2.399-9.333-5.807-12.951-10.132zM22.537 7.512a1.03 1.03 0 00-1.187.842 1.03 1.03 0 00.842 1.186 11.308 11.308 0 016.101 3.165 11.28 11.28 0 013.164 6.1 1.03 1.03 0 001.195.842c.564-.092.943-.63.842-1.186a13.303 13.303 0 00-3.737-7.212 13.33 13.33 0 00-7.22-3.737zM39.965 19.31c.06 0 .118-.008.177-.016.564-.093.943-.631.842-1.187-.766-4.527-2.904-8.642-6.177-11.916C31.525 2.917 27.409.78 22.882.014a1.03 1.03 0 00-1.187.841 1.03 1.03 0 00.842 1.187c4.098.699 7.835 2.634 10.805 5.605 2.971 2.97 4.907 6.707 5.605 10.805a1.03 1.03 0 001.018.859z" fill="#009CD4"/></svg></svg>